<?xml version="1.0" standalone="no"?>
<!DOCTYPE svg PUBLIC "-//W3C//DTD SVG 1.1//EN" "http://www.w3.org/Graphics/SVG/1.1/DTD/svg11.dtd" >
<svg xmlns="http://www.w3.org/2000/svg">
<metadata></metadata>
<defs>
<font id="qanelas_softlight" horiz-adv-x="1091" >
<font-face units-per-em="2048" ascent="1638" descent="-410" />
<missing-glyph horiz-adv-x="546" />
<glyph horiz-adv-x="0" />
<glyph horiz-adv-x="682" />
<glyph unicode=" "  horiz-adv-x="546" />
<glyph unicode="&#x09;" horiz-adv-x="546" />
<glyph unicode="&#xa0;" horiz-adv-x="546" />
<glyph unicode="!" horiz-adv-x="450" d="M157 31v102q0 31 31 31h75q31 0 31 -31v-102q0 -31 -31 -31h-75q-31 0 -31 31zM164 1026v377q0 31 31 31h61q31 0 31 -31v-380l-19 -632q0 -22 -24 -22h-37q-24 0 -24 22z" />
<glyph unicode="&#x22;" horiz-adv-x="600" d="M111 1406q-2 28 26 28h53q29 0 27 -28l-11 -327q-2 -28 -29 -28h-26q-27 0 -29 28zM384 1406q-2 28 26 28h54q28 0 26 -28l-11 -327q-2 -28 -29 -28h-26q-27 0 -29 28z" />
<glyph unicode="#" horiz-adv-x="1234" d="M81 518l5 34q4 28 34 28h217l45 273h-214q-15 0 -22.5 9.5t-5.5 24.5l6 34q4 28 33 28h219l59 354q4 28 32 28h40q15 0 22 -9.5t5 -24.5l-58 -348h318l59 354q4 28 32 28h40q15 0 22 -9.5t5 -24.5l-58 -348h211q15 0 22 -9.5t5 -24.5l-5 -34q-4 -28 -33 -28h-216 l-45 -273h212q15 0 22.5 -9.5t5.5 -24.5l-6 -34q-4 -27 -33 -27h-217l-59 -355q-4 -28 -32 -28h-40q-15 0 -22 9.5t-5 24.5l57 349h-317l-59 -355q-4 -28 -32 -28h-40q-15 0 -22 9.5t-5 24.5l58 349h-212q-15 0 -22.5 9t-5.5 24zM437 580h317l46 273h-317z" />
<glyph unicode="$" horiz-adv-x="1126" d="M90 361q-2 32 29 32h50q28 0 30 -31q10 -117 93.5 -189t222.5 -87v607q-49 19 -84.5 34t-79 37.5t-74.5 45t-62 54t-50 66t-31 79.5t-12 96q0 152 112.5 245.5t280.5 104.5v153q0 30 31 30h34q31 0 31 -30v-154q158 -16 268 -112t122 -246q2 -32 -30 -32h-49 q-28 0 -30 30q-10 104 -87.5 172t-193.5 82v-583q43 -17 70 -28t67.5 -29t66 -32.5t59.5 -36.5t55 -43t44 -49.5t35.5 -58t21 -66.5t8.5 -78q0 -162 -122.5 -261t-304.5 -106v-151q0 -31 -31 -31h-34q-31 0 -31 31v154q-181 17 -298 117t-127 264zM231 1105 q0 -58 21.5 -105.5t63.5 -83.5t88 -62t111 -52v548q-128 -10 -206 -75t-78 -170zM611 82q142 6 229.5 76.5t87.5 185.5q0 49 -17.5 91.5t-44.5 73t-71 59t-85.5 48t-98.5 41.5v-575z" />
<glyph unicode="%" horiz-adv-x="1548" d="M130 1151q0 129 89.5 217.5t223.5 88.5t223.5 -88.5t89.5 -217.5t-88.5 -217.5t-224.5 -88.5q-134 0 -223.5 88.5t-89.5 217.5zM231 11q-6 11 5 26l966 1377q15 20 37 20h52q19 0 25 -11t-5 -26l-967 -1377q-15 -20 -37 -20h-51q-19 0 -25 11zM231 1151q0 -90 60 -151 t152 -61q93 0 152.5 61t59.5 151t-60 151t-152 61t-152 -61t-60 -151zM791 283q0 128 90 216.5t224 88.5t223.5 -88.5t89.5 -216.5q0 -129 -89.5 -217.5t-223.5 -88.5t-224 89t-90 217zM892 283q0 -90 60.5 -151t152.5 -61t152 61t60 151t-60 150.5t-152 60.5t-152.5 -60.5 t-60.5 -150.5z" />
<glyph unicode="&#x26;" horiz-adv-x="1343" d="M109 390q0 128 66 232.5t182 170.5q-59 66 -89 133t-30 155q0 112 57.5 199t151.5 132t207 45q167 0 289 -97.5t134 -263.5q3 -32 -30 -32h-48q-29 0 -32 30q-10 119 -97.5 188.5t-215.5 69.5q-135 0 -221 -75.5t-86 -195.5q0 -80 39.5 -145.5t117.5 -141.5l507 -508 q80 126 86 326q2 31 31 31h48q31 0 31 -21q-4 -247 -119 -414l170 -170q14 -15 9.5 -26.5t-24.5 -11.5h-73q-21 0 -37 16l-113 112q-158 -151 -433 -151q-208 0 -343 114t-135 299zM218 390q0 -139 104 -223.5t265 -84.5q227 0 357 122l-513 512q-105 -54 -159 -140 t-54 -186z" />
<glyph unicode="'" horiz-adv-x="321" d="M111 1406q-2 28 26 28h53q29 0 27 -28l-11 -327q-2 -28 -29 -28h-26q-27 0 -29 28z" />
<glyph unicode="(" horiz-adv-x="534" d="M123 717q0 462 214 898q11 23 36 23h39q17 0 23.5 -10t-0.5 -26q-208 -432 -208 -885t208 -885q7 -16 0.5 -26.5t-23.5 -10.5h-39q-25 0 -36 23q-214 436 -214 899z" />
<glyph unicode=")" horiz-adv-x="534" d="M98.5 -194.5q-6.5 10.5 0.5 26.5q208 432 208 885t-208 885q-7 16 -0.5 26t23.5 10h39q24 0 35 -23q215 -438 215 -898q0 -461 -215 -899q-11 -23 -35 -23h-39q-17 0 -23.5 10.5z" />
<glyph unicode="*" horiz-adv-x="792" d="M130 1191v33q0 27 28 27l166 -4l-91 139q-16 24 7 37l32 20q25 14 38 -11l86 -147l86 147q13 25 38 11l31 -19q25 -14 8 -38l-91 -139l166 4q28 0 28 -27v-33q0 -26 -28 -26l-166 3l91 -138q17 -24 -8 -38l-31 -19q-25 -14 -38 10l-86 147l-86 -147q-13 -25 -39 -10 l-31 18q-24 14 -7 39l91 138l-166 -3q-28 0 -28 26z" />
<glyph unicode="+" d="M130 698v38q0 31 30 31h336v335q0 31 30 31h40q31 0 31 -31v-335h335q31 0 31 -31v-38q0 -31 -31 -31h-335v-336q0 -31 -31 -31h-40q-30 0 -30 31v336h-336q-30 0 -30 31z" />
<glyph unicode="," horiz-adv-x="450" d="M150 -211q0 16 16 27q58 32 59 157h-30q-31 0 -31 30v130q0 31 31 31h75q30 0 30 -31v-160q0 -184 -125 -225q-11 -3 -18 3t-7 17v21z" />
<glyph unicode="-" d="M178 614v38q0 31 30 31h676q31 0 31 -31v-38q0 -31 -31 -31h-676q-30 0 -30 31z" />
<glyph unicode="." horiz-adv-x="436" d="M150 31v102q0 31 31 31h75q31 0 31 -31v-102q0 -31 -31 -31h-75q-31 0 -31 31z" />
<glyph unicode="/" horiz-adv-x="1079" d="M101 -175l799 1794q8 19 29 19h28q15 0 20.5 -8t-0.5 -22l-798 -1794q-8 -19 -29 -19h-28q-15 0 -21 8t0 22z" />
<glyph unicode="0" horiz-adv-x="1290" d="M109 717q0 337 141.5 538.5t394.5 201.5t394.5 -201.5t141.5 -538.5t-141.5 -538.5t-394.5 -201.5t-394.5 201.5t-141.5 538.5zM218 717q0 -300 113.5 -467.5t313.5 -167.5t313.5 167.5t113.5 467.5t-113.5 467.5t-313.5 167.5t-313.5 -167.5t-113.5 -467.5z" />
<glyph unicode="1" horiz-adv-x="679" d="M34 1163v54q0 23 22 36l318 171q15 10 39 10h58q31 0 31 -31v-1372q0 -31 -31 -31h-48q-30 0 -30 31v1283l-322 -172q-16 -9 -26.5 -2.5t-10.5 23.5z" />
<glyph unicode="2" horiz-adv-x="1079" d="M89 31v45q0 23 15 38l510 518q108 110 170 208.5t62 193.5q0 151 -89 234.5t-229 83.5q-137 0 -228.5 -74.5t-100.5 -209.5q-2 -31 -32 -31h-48q-31 0 -29 32q8 123 72 213t159 132.5t207 42.5q115 0 210.5 -47t156.5 -145t61 -231q0 -119 -71 -235.5t-196 -243.5 l-446 -450h716q31 0 31 -31v-43q0 -31 -31 -31h-840q-30 0 -30 31z" />
<glyph unicode="3" horiz-adv-x="1105" d="M56 382q-2 32 29 32h49q29 0 31 -31q10 -139 111.5 -220t255.5 -81q163 0 266 90t103 242t-103 241.5t-266 89.5v2l-1 -2h-46q-30 0 -30 31v19q0 22 12 38l350 498h-670q-31 0 -31 31v41q0 31 31 31h764q31 0 31 -31v-50q0 -23 -12 -39l-333 -475q180 -18 296.5 -130.5 t116.5 -294.5q0 -134 -66.5 -235t-174 -151.5t-237.5 -50.5q-125 0 -229.5 47t-172 140.5t-74.5 217.5z" />
<glyph unicode="4" horiz-adv-x="1161" d="M58 331v52q0 20 9 38l522 991q12 22 37 22h54q17 0 23.5 -10.5t-1.5 -26.5l-524 -994h651v420q0 30 31 30h48q31 0 31 -30v-420h153q31 0 31 -31v-41q0 -31 -31 -31h-153v-269q0 -31 -31 -31h-48q-31 0 -31 31v269h-740q-31 0 -31 31z" />
<glyph unicode="5" horiz-adv-x="1126" d="M87 382q-2 32 29 32h49q29 0 31 -31q10 -139 111.5 -220t255.5 -81q163 0 266 90t103 242t-103 241.5t-266 89.5h-371q-15 0 -23.5 9t-7.5 24l46 626q3 30 30 30h719q30 0 30 -31v-41q0 -31 -30 -31h-648l-33 -480h288q130 0 237.5 -50.5t174 -151.5t66.5 -235 t-66.5 -235t-174 -151.5t-237.5 -50.5q-125 0 -229.5 47t-172 140.5t-74.5 217.5z" />
<glyph unicode="6" horiz-adv-x="1099" d="M68 449q0 165 88 286l466 679q13 20 37 20h55q19 0 25 -11t-5 -26l-341 -498q75 23 157 23h-1q210 0 346 -132t136 -341t-136 -340.5t-346 -131.5t-345.5 131.5t-135.5 340.5zM177 449q0 -162 102 -264.5t270 -102.5t270 102.5t102 264.5t-102 264.5t-270 102.5 t-270 -102.5t-102 -264.5z" />
<glyph unicode="7" horiz-adv-x="1003" d="M48 1362v41q0 31 31 31h805q31 0 31 -31v-52q0 -19 -8 -38l-539 -1290q-8 -23 -36 -23h-48q-17 0 -24 9.5t0 25.5l542 1296h-724q-30 0 -30 31z" />
<glyph unicode="8" horiz-adv-x="1126" d="M89 382q0 124 69 217.5t187 140.5q-96 48 -153 133t-57 197q0 122 61 212t156.5 132.5t210.5 42.5t210.5 -42.5t156.5 -132.5t61 -212q0 -112 -57 -197t-153 -133q118 -47 187.5 -140.5t69.5 -217.5q0 -126 -63 -219t-170 -139.5t-242 -46.5q-207 0 -340.5 108 t-133.5 297zM198 382q0 -141 98 -220.5t267 -79.5t267 79.5t98 220.5t-98 221t-267 80t-267 -80t-98 -221zM244 1070q0 -129 90.5 -205.5t228.5 -76.5t228.5 76.5t90.5 205.5q0 134 -89.5 208t-229.5 74t-229.5 -74t-89.5 -208z" />
<glyph unicode="9" horiz-adv-x="1099" d="M68 984q0 209 136 341t346 132t345.5 -132t135.5 -341q0 -164 -88 -285v-1l-466 -678q-13 -20 -37 -20h-55q-19 0 -25 11t5 26l341 497q-72 -22 -156 -22q-210 0 -346 131.5t-136 340.5zM178 984q0 -162 102 -264.5t270 -102.5t270 102.5t102 264.5t-102 265t-270 103 t-270 -103t-102 -265z" />
<glyph unicode=":" horiz-adv-x="436" d="M150 31v102q0 31 31 31h75q31 0 31 -31v-102q0 -31 -31 -31h-75q-31 0 -31 31zM150 891v102q0 31 31 31h75q31 0 31 -31v-102q0 -31 -31 -31h-75q-31 0 -31 31z" />
<glyph unicode=";" horiz-adv-x="450" d="M150 -211q0 16 16 27q58 32 59 157h-30q-31 0 -31 30v130q0 31 31 31h75q30 0 30 -31v-160q0 -184 -125 -225q-11 -3 -18 3t-7 17v21zM164 891v102q0 31 31 31h75q30 0 30 -31v-102q0 -31 -30 -31h-75q-31 0 -31 31z" />
<glyph unicode="&#x3c;" horiz-adv-x="1079" d="M130 689v56q0 24 23 36l760 338q16 7 26 0t10 -24v-49q0 -24 -23 -35l-679 -294l679 -294q23 -11 23 -35v-49q0 -17 -10 -24.5t-26 -0.5l-760 338q-23 12 -23 37z" />
<glyph unicode="=" horiz-adv-x="1099" d="M130 493v38q0 31 30 31h779q30 0 30 -31v-38q0 -31 -30 -31h-779q-30 0 -30 31zM130 902v39q0 30 30 30h779q30 0 30 -30v-39q0 -30 -30 -30h-779q-30 0 -30 30z" />
<glyph unicode="&#x3e;" horiz-adv-x="1079" d="M130 339v49q0 24 23 35l678 294l-678 294q-23 11 -23 35v49q0 17 9.5 24t25.5 0l761 -337q23 -12 23 -37v-56q0 -25 -23 -37l-761 -337q-16 -7 -25.5 0t-9.5 24z" />
<glyph unicode="?" horiz-adv-x="1089" d="M90 1096q12 166 141.5 263.5t306.5 97.5q181 0 301 -98t120 -271q0 -61 -21 -117t-54.5 -100.5t-74.5 -87.5t-83 -86t-77.5 -87t-60.5 -98.5t-30 -113.5q-2 -29 -31 -29h-49q-31 0 -29 32q4 67 29 128t60.5 107.5t77.5 90.5t83 84.5t75 82t55 91t21 103.5q0 126 -85 195 t-227 69q-139 0 -234 -69.5t-105 -187.5q-2 -31 -30 -31h-50q-31 0 -29 32zM434 31v102q0 31 30 31h75q31 0 31 -31v-102q0 -31 -31 -31h-75q-30 0 -30 31z" />
<glyph unicode="@" horiz-adv-x="1652" d="M96 512q0 203 96.5 372.5t268 269t380.5 99.5q133 0 249.5 -40t201 -109t145.5 -158.5t91 -190t30 -202.5q0 -112 -25 -197.5t-66.5 -134t-90.5 -72t-103 -23.5q-88 0 -145.5 48.5t-71.5 137.5q-41 -60 -104.5 -94t-141.5 -34q-142 0 -236.5 94.5t-94.5 233.5t94.5 233.5 t236.5 94.5q154 0 242 -122v77q0 30 31 30h37q30 0 30 -30v-426q0 -83 32.5 -134.5t103.5 -51.5q96 0 156.5 92.5t60.5 277.5q0 136 -51.5 256.5t-139.5 207t-210.5 136.5t-260.5 50q-141 0 -268.5 -53t-220.5 -144t-147.5 -220t-54.5 -274q0 -197 94.5 -355t261 -247 t372.5 -89q190 0 333 51q19 5 20 -13l2 -18q2 -16 -9 -19q-145 -51 -346 -51q-221 0 -399.5 95t-280.5 264.5t-102 381.5zM577 512q0 -102 69 -167.5t170 -65.5q99 0 167.5 65.5t68.5 167.5q0 103 -68.5 168.5t-167.5 65.5q-101 0 -170 -65.5t-69 -168.5z" />
<glyph unicode="A" horiz-adv-x="1288" d="M45 35l533 1374q10 25 35 25h63q25 0 35 -25l533 -1374q3 -9 3 -16q0 -19 -27 -19h-51q-25 0 -35 25l-131 340h-717l-131 -340q-10 -25 -35 -25h-51q-17 0 -23 10q-3 5 -4 11q0 6 3 14zM325 468h639l-320 832z" />
<glyph unicode="B" horiz-adv-x="1398" d="M178 31v1372q0 31 30 31h79h449q157 0 256.5 -97t99.5 -239q0 -101 -56 -186q130 -50 209 -170t79 -271q0 -128 -58 -236t-162.5 -171.5t-231.5 -63.5h-633h-31q-30 0 -30 31zM287 102h571q157 0 257 107t100 262q0 156 -99 262.5t-256 106.5h-573v-738zM287 942h587 q33 0 49 -2q60 66 60 158q0 100 -67.5 166.5t-179.5 66.5h-449v-389z" />
<glyph unicode="C" horiz-adv-x="1574" d="M96 717q0 203 94.5 372t266.5 268.5t385 99.5q220 0 398.5 -117.5t253.5 -307.5q3 -8 3 -14q1 -8 -3 -12q-6 -10 -24 -9h-55q-25 0 -37 23q-66 149 -212 240.5t-324 91.5q-138 0 -258 -50t-202.5 -135.5t-129.5 -202t-47 -247.5t47 -247.5t129.5 -202t202.5 -135.5 t258 -50q179 0 324.5 91t211.5 241q12 23 37 23h55q16 0 24 -9q4 -5 5 -12q0 -5 -3 -11q-76 -192 -254.5 -310t-399.5 -118q-213 0 -385 99.5t-266.5 268.5t-94.5 372z" />
<glyph unicode="D" horiz-adv-x="1529" d="M178 31v1372q0 31 30 31h79h471q145 0 271.5 -56.5t215 -153.5t139 -228.5t50.5 -278.5t-50.5 -278.5t-139 -228.5t-215 -153.5t-271.5 -56.5h-533h-17q-30 0 -30 31zM287 102h471q165 0 296 83t202 223t71 309t-71 309t-202 222.5t-296 82.5h-471v-1229z" />
<glyph unicode="E" horiz-adv-x="1064" d="M178 31v1372q0 31 30 31h79h648q31 0 31 -31v-41q0 -31 -31 -31h-648v-557h597q31 0 31 -31v-41q0 -30 -31 -30h-597v-570h659q30 0 30 -30v-41q0 -31 -30 -31h-721h-17q-30 0 -30 31z" />
<glyph unicode="F" horiz-adv-x="1028" d="M178 31v1372q0 31 30 31h79h648q31 0 31 -31v-41q0 -31 -31 -31h-648v-614h624q31 0 31 -31v-41q0 -31 -31 -31h-624v-583q0 -31 -31 -31h-48q-30 0 -30 31z" />
<glyph unicode="G" horiz-adv-x="1644" d="M96 717q0 203 94.5 372t265 268.5t380.5 99.5q220 0 398 -117.5t253 -307.5q6 -16 -0.5 -25.5t-23.5 -9.5h-55q-25 0 -37 23q-66 150 -211.5 241t-323.5 91q-136 0 -254 -50t-200.5 -135.5t-129.5 -202t-47 -247.5q0 -175 79 -319.5t225.5 -230t332.5 -85.5q107 0 203 29 t172 83.5t122.5 140t51.5 191.5v78h-495q-30 0 -30 31v41q0 31 30 31h574q30 0 30 -31v-72v-573q0 -31 -30 -31h-48q-31 0 -31 31v222q-77 -135 -225 -205.5t-324 -70.5q-215 0 -386.5 99.5t-265.5 268.5t-94 372z" />
<glyph unicode="H" horiz-adv-x="1296" d="M178 31v1372q0 31 30 31h48q31 0 31 -31v-615h723v615q0 31 31 31h48q31 0 31 -31v-1372q0 -31 -31 -31h-48q-31 0 -31 31v655h-723v-655q0 -31 -31 -31h-48q-30 0 -30 31z" />
<glyph unicode="I" horiz-adv-x="464" d="M178 31v1372q0 31 30 31h48q31 0 31 -31v-1372q0 -31 -31 -31h-48q-30 0 -30 31z" />
<glyph unicode="J" d="M56 382q0 28 29 28h48q31 0 32 -30q8 -144 98.5 -221t231.5 -77q147 0 239 81t92 230v1010q0 31 31 31h48q30 0 30 -31v-1010q0 -100 -36 -180.5t-97 -131t-139.5 -77.5t-167.5 -27q-180 0 -305 105q-134 112 -134 300z" />
<glyph unicode="K" horiz-adv-x="1171" d="M177 31v1372q0 31 31 31h48q31 0 31 -31v-636l683 651q16 16 37 16h69q20 0 25 -13t-9 -26l-687 -658l708 -699q11 -11 11 -21q0 -3 -2 -5q-4 -12 -24 -12h-69q-24 0 -38 15l-704 691v-675q0 -31 -31 -31h-48q-31 0 -31 31z" />
<glyph unicode="L" horiz-adv-x="1009" d="M178 31v1372q0 31 30 31h48q31 0 31 -31v-1301h645q31 0 31 -30v-41q0 -31 -31 -31h-694h-30q-30 0 -30 31z" />
<glyph unicode="M" horiz-adv-x="1652" d="M178 31v1372q0 31 30 31h48h35q24 0 35 -23l500 -1031l500 1031q11 23 35 23h50h33q31 0 31 -31v-1372q0 -31 -31 -31h-48q-31 0 -31 31v1224l-474 -977q-11 -23 -36 -23h-58q-25 0 -36 23l-474 977v-1224q0 -31 -31 -31h-48q-30 0 -30 31z" />
<glyph unicode="N" horiz-adv-x="1290" d="M178 31v1372q0 31 30 31h41q25 0 36 -20l719 -1197v1186q0 31 30 31h48q31 0 31 -31v-1372q0 -31 -31 -31h-40q-26 0 -37 20l-718 1197v-1186q0 -31 -31 -31h-48q-30 0 -30 31z" />
<glyph unicode="O" horiz-adv-x="1671" d="M96 717q0 202 98 372t268.5 269t373.5 99t373.5 -99t268.5 -269t98 -372t-98 -372t-268.5 -269t-373.5 -99t-373.5 99t-268.5 269t-98 372zM205 717q0 -174 83 -319.5t228.5 -230.5t319.5 -85t319 85t228 230.5t83 319.5t-83 319.5t-228 230.5t-319 85t-319.5 -85 t-228.5 -230.5t-83 -319.5z" />
<glyph unicode="P" horiz-adv-x="1181" d="M178 31v1372q0 31 30 31h79h382q175 0 299 -124.5t124 -299.5q0 -174 -124 -298.5t-299 -124.5h-382v-556q0 -31 -31 -31h-48q-30 0 -30 31zM287 690h382q130 0 222 94t92 226q0 133 -92 227t-222 94h-382v-641z" />
<glyph unicode="Q" horiz-adv-x="1681" d="M96 717q0 151 58.5 288t157.5 236t236 157.5t288 58.5t288 -58.5t236 -157.5t157.5 -236t58.5 -288q0 -154 -60 -292t-166 -241l164 -186q20 -24 -3 -43l-31 -24q-11 -9 -21 -9q-12 0 -22 13l-163 186q-197 -144 -438 -144q-151 0 -288 58.5t-236 157.5t-157.5 236 t-58.5 288zM205 717q0 -130 50 -247.5t134 -202.5t201 -135t246 -50q205 0 368 119l-180 205q-20 24 3 43l30 24q24 19 43 -5l179 -203q89 88 138 204.5t49 247.5q0 130 -49.5 247.5t-134 202.5t-201 135t-245.5 50t-246 -50t-201 -135t-134 -202.5t-50 -247.5z" />
<glyph unicode="R" horiz-adv-x="1284" d="M178 31v1372q0 31 30 31h79h382q175 0 299 -124.5t124 -299.5q0 -149 -93 -264.5t-236 -147.5l494 -560q9 -11 9 -19q0 -3 -2 -7q-6 -12 -24 -12h-63q-23 0 -39 17l-501 570h-350v-556q0 -31 -31 -31h-48q-30 0 -30 31zM287 689h382q130 0 222 94.5t92 226.5 q0 133 -92 227t-222 94h-382v-642z" />
<glyph unicode="S" horiz-adv-x="1126" d="M90 369q0 28 29 28h50q28 0 30 -31q12 -133 115.5 -208.5t271.5 -75.5q150 0 246 75.5t96 196.5q0 44 -12 80.5t-39 66.5t-53.5 51.5t-74 44.5t-80 36t-89.5 35q-169 64 -222 90q-158 79 -206 198q-24 60 -24 135q0 163 124.5 264.5t303.5 101.5q175 0 300.5 -98.5 t137.5 -262.5q2 -32 -29 -32h-50q-28 0 -30 30q-10 116 -101.5 187t-227.5 71q-140 0 -229 -73t-89 -188q0 -39 11 -72.5t25 -58.5t44.5 -50t53 -40t67 -35.5t70 -30.5t78.5 -30q172 -67 231 -97q160 -85 203 -210q17 -52 17 -113q0 -113 -62.5 -200t-164.5 -132t-225 -45 q-208 -1 -346 103q-150 112 -150 289z" />
<glyph unicode="T" horiz-adv-x="1024" d="M48 1362v41q0 31 31 31h488h379q30 0 30 -31v-41q0 -31 -30 -31h-379v-1300q0 -31 -31 -31h-48q-31 0 -31 31v1300h-378q-31 0 -31 31z" />
<glyph unicode="U" horiz-adv-x="1275" d="M157 414v989q0 31 31 31h48q30 0 30 -31v-989q0 -157 100 -244.5t272 -87.5t272 87.5t100 244.5v989q0 31 31 31h48q31 0 31 -31v-989q0 -137 -64.5 -237t-172.5 -150t-245 -50t-245 50t-172 150t-64 237z" />
<glyph unicode="V" horiz-adv-x="1239" d="M40 1398q-3 7 -3 13q1 7 5 13q8 10 24 10h51q26 0 35 -25l467 -1275l467 1275q9 25 36 25h51q17 0 25 -10q4 -6 4 -13q0 -6 -3 -13l-513 -1373q-9 -25 -36 -25h-62q-26 0 -35 25z" />
<glyph unicode="W" horiz-adv-x="1761" d="M45 1398q-2 6 -2 12q1 8 5 14q8 10 23 10h44q25 0 33 -26l412 -1296l268 842l-141 444q-5 16 2.5 26t23.5 10h43q26 0 34 -26l412 -1296l411 1296q8 26 34 26h43q16 0 24 -10q4 -6 4 -14q0 -5 -2 -12l-435 -1372q-8 -26 -34 -26h-91q-26 0 -34 26l-241 761l-242 -761 q-8 -26 -34 -26h-91q-26 0 -34 26z" />
<glyph unicode="X" horiz-adv-x="1161" d="M68 11q-2 4 -3 9q0 8 6 17l449 701l-422 659q-9 15 -3.5 26t23.5 11h52q25 0 37 -20l373 -583l374 583q12 20 36 20h53q18 0 23.5 -11t-3.5 -26l-423 -659l449 -701q6 -10 6 -18q0 -4 -2 -8q-5 -11 -23 -11h-53q-25 0 -37 20l-400 624l-400 -624q-12 -20 -37 -20h-52 q-17 0 -23 11z" />
<glyph unicode="Y" horiz-adv-x="1167" d="M47 1423q6 11 25 11h54q24 0 37 -20l421 -640l421 640q13 20 37 20h53q19 0 25 -11q2 -4 2 -8q0 -8 -7 -18l-477 -727v-639q0 -31 -31 -31h-48q-31 0 -31 31v641l-476 725q-7 10 -7 18q0 4 2 8z" />
<glyph unicode="Z" horiz-adv-x="1058" d="M89 31v51q0 20 10 37l750 1212h-709q-31 0 -31 31v41q0 31 31 31h799q30 0 30 -31v-52q0 -19 -10 -37l-749 -1212h749q31 0 31 -30v-41q0 -31 -31 -31h-840q-30 0 -30 31z" />
<glyph unicode="[" horiz-adv-x="532" d="M130 -174v1782q0 30 30 30h73h262q31 0 31 -30v-39q0 -31 -31 -31h-262v-1642h262q31 0 31 -31v-39q0 -31 -31 -31h-304h-31q-30 0 -30 31z" />
<glyph unicode="\" horiz-adv-x="1079" d="M101 1608q-6 14 0 22t21 8h28q21 0 29 -19l798 -1794q6 -14 0.5 -22t-20.5 -8h-28q-21 0 -29 19z" />
<glyph unicode="]" horiz-adv-x="532" d="M7 -135q0 31 31 31h261v1642h-261q-31 0 -31 31v39q0 30 31 30h303h31q31 0 31 -30v-1782q0 -31 -31 -31h-73h-261q-31 0 -31 31v39z" />
<glyph unicode="^" horiz-adv-x="1028" d="M121 830q-6 11 3 26l326 556q13 22 37 22h54q24 0 37 -22l326 -556q9 -15 3 -26t-24 -11h-53q-24 0 -37 22l-279 477l-279 -477q-13 -22 -37 -22h-53q-18 0 -24 11z" />
<glyph unicode="_" horiz-adv-x="1038" d="M82 -204q0 31 31 31h812q31 0 31 -31v-38q0 -31 -31 -31h-812q-31 0 -31 31v38z" />
<glyph unicode="`" horiz-adv-x="368" d="M61 1417q-5 -10 5 -24l151 -208q13 -18 34 -18h38q16 0 21.5 10.5t-2.5 24.5l-132 206q-11 19 -33 19h-60q-17 0 -22 -10z" />
<glyph unicode="a" horiz-adv-x="1021" d="M92 300q0 103 52.5 178t134.5 110t180 35q106 0 192 -37t136 -107v193q0 136 -78 206t-197 70q-108 0 -184 -54t-88 -151q-7 -30 -32 -30h-43q-33 0 -31 32q13 134 116.5 218t261.5 84q168 0 273.5 -100t105.5 -275v-641q0 -31 -31 -31h-42q-31 0 -31 31v93 q-92 -147 -328 -147q-98 0 -180 35t-134.5 110t-52.5 178zM196 300q0 -102 74 -164t211 -62q133 0 219.5 60t86.5 166q0 109 -86.5 167.5t-219.5 58.5q-137 0 -211 -62t-74 -164z" />
<glyph unicode="b" horiz-adv-x="1320" d="M157 31v1372q0 31 31 31h42q31 0 31 -31v-615q64 120 179 189.5t261 69.5q108 0 205.5 -41.5t169 -112.5t114 -170.5t42.5 -210.5t-42.5 -210.5t-114 -170.5t-169 -112.5t-205.5 -41.5q-146 0 -261 69.5t-179 189.5v-205q0 -31 -31 -31h-42q-31 0 -31 31zM261 512 q0 -183 125 -309.5t308 -126.5t308.5 126.5t125.5 309.5t-125.5 309.5t-308.5 126.5t-308 -126.5t-125 -309.5z" />
<glyph unicode="c" horiz-adv-x="1179" d="M89 512q0 227 153.5 381t383.5 154q162 0 290 -82.5t182 -219.5q4 -8 4 -14.5t-4 -10.5q-7 -10 -24 -10h-46q-26 0 -37 23q-47 98 -144.5 156.5t-220.5 58.5q-184 0 -308.5 -126t-124.5 -310t124.5 -310t308.5 -126q123 0 221 58.5t144 156.5q12 23 37 23h46q17 0 24 -10 q4 -5 4 -11t-4 -14q-53 -137 -181 -219.5t-291 -82.5q-230 0 -383.5 154t-153.5 381z" />
<glyph unicode="d" horiz-adv-x="1320" d="M89 512q0 148 71.5 271.5t193 193.5t265.5 70q146 0 261 -69.5t179 -189.5v615q0 31 31 31h43q30 0 30 -31v-1372q0 -31 -30 -31h-43q-31 0 -31 31v205q-64 -120 -179 -189.5t-261 -69.5q-144 0 -265.5 70t-193 193.5t-71.5 271.5zM193 512q0 -183 125 -309.5t308 -126.5 t308.5 126.5t125.5 309.5t-125.5 309.5t-308.5 126.5t-308 -126.5t-125 -309.5z" />
<glyph unicode="e" horiz-adv-x="1171" d="M89 512q0 150 63.5 271.5t183 192.5t272.5 71q91 0 171 -29t138.5 -80t101 -119t64 -147.5t21.5 -163.5v-20q-1 -29 -32 -29h-73h-804q16 -174 131 -278.5t286 -104.5q114 0 201.5 48.5t128.5 128.5q14 22 36 22h51q18 0 26 -8.5t2 -21.5q-51 -121 -171 -194.5 t-276 -73.5q-231 0 -376 151t-145 384zM194 558h804q-15 181 -125 285.5t-265 104.5q-173 0 -286.5 -108.5t-127.5 -281.5z" />
<glyph unicode="f" horiz-adv-x="626" d="M41 955v38q0 31 31 31h146v55q0 185 98 285q91 94 260 94h21q30 0 30 -32v-38q0 -29 -32 -29h-15q-128 0 -191 -66q-67 -70 -67 -214v-55h275q30 0 30 -31v-38q0 -31 -30 -31h-275v-893q0 -31 -30 -31h-43q-31 0 -31 31v893h-146q-31 0 -31 31z" />
<glyph unicode="g" horiz-adv-x="1327" d="M96 512q0 148 71.5 271.5t193 193.5t265.5 70q146 0 261 -69.5t179 -189.5v205q0 31 31 31h42q31 0 31 -31v-945q0 -150 -68 -260t-182.5 -165.5t-260.5 -55.5q-186 0 -327.5 100.5t-158.5 240.5q-2 32 31 32h42q27 0 33 -28q16 -95 120.5 -170t259.5 -75q195 0 301 102 t106 279v188q-64 -120 -179 -189.5t-261 -69.5q-144 0 -265.5 70t-193 193.5t-71.5 271.5zM199 512q0 -183 125.5 -309.5t308.5 -126.5t308 126.5t125 309.5t-125 309.5t-308 126.5t-308.5 -126.5t-125.5 -309.5z" />
<glyph unicode="h" horiz-adv-x="1073" d="M157 31v1372q0 31 31 31h42q31 0 31 -31v-546q106 190 336 190q148 0 246.5 -99.5t98.5 -270.5v-646q0 -31 -31 -31h-42q-31 0 -31 31v646q0 128 -71 199.5t-186 71.5q-62 0 -118 -21.5t-102 -64.5t-73 -116t-27 -168v-547q0 -31 -31 -31h-42q-31 0 -31 31z" />
<glyph unicode="i" horiz-adv-x="417" d="M157 31v962q0 31 31 31h42q31 0 31 -31v-962q0 -31 -31 -31h-42q-31 0 -31 31zM157 1260v143q0 31 31 31h42q31 0 31 -31v-143q0 -31 -31 -31h-42q-31 0 -31 31z" />
<glyph unicode="j" horiz-adv-x="456" d="M-41 -365q0 30 30 30h14q96 0 143 49q50 54 50 170v1109q0 31 31 31h42q31 0 31 -31v-1109q0 -157 -80 -240q-75 -78 -210 -78h-20q-31 0 -31 30v39zM196 1260v143q0 31 31 31h42q31 0 31 -31v-143q0 -31 -31 -31h-42q-31 0 -31 31z" />
<glyph unicode="k" horiz-adv-x="989" d="M157 31v1372q0 31 31 31h42q31 0 31 -31v-842l505 448q15 15 37 15h62q21 0 25.5 -11.5t-11.5 -26.5l-511 -454l533 -494q12 -11 12 -20q1 -3 -1 -6q-4 -12 -26 -12h-62q-22 0 -37 15l-526 488v-472q0 -31 -31 -31h-42q-31 0 -31 31z" />
<glyph unicode="l" horiz-adv-x="417" d="M157 31v1413q0 31 31 31h42q31 0 31 -31v-1413q0 -31 -31 -31h-42q-31 0 -31 31z" />
<glyph unicode="m" horiz-adv-x="1591" d="M157 31v962q0 31 31 31h42q31 0 31 -31v-113q98 167 289 167q95 0 171.5 -49t112.5 -143q97 192 309 192q136 0 227 -90.5t91 -259.5v-666q0 -31 -31 -31h-42q-31 0 -31 31v666q0 125 -62.5 188t-161.5 63q-48 0 -94 -18t-87 -55.5t-66 -103.5t-25 -153v-587 q0 -31 -31 -31h-42q-31 0 -31 31v666q0 125 -62.5 188t-161.5 63q-48 0 -94 -18t-87 -55.5t-66 -103.5t-25 -153v-587q0 -31 -31 -31h-42q-31 0 -31 31z" />
<glyph unicode="n" horiz-adv-x="1073" d="M157 31v962q0 31 31 31h42q31 0 31 -31v-136q106 190 336 190q148 0 246.5 -99.5t98.5 -270.5v-646q0 -31 -31 -31h-42q-31 0 -31 31v646q0 128 -71 199.5t-186 71.5q-62 0 -118 -21.5t-102 -64.5t-73 -116t-27 -168v-547q0 -31 -31 -31h-42q-31 0 -31 31z" />
<glyph unicode="o" horiz-adv-x="1251" d="M89 512q0 111 42.5 210.5t114 170.5t171 112.5t209.5 41.5t209.5 -41.5t171 -112.5t114 -170.5t42.5 -210.5t-42.5 -210.5t-114 -170.5t-171 -112.5t-209.5 -41.5t-209.5 41.5t-171 112.5t-114 170.5t-42.5 210.5zM193 512q0 -183 125 -309.5t308 -126.5t308.5 126.5 t125.5 309.5t-125.5 309.5t-308.5 126.5t-308 -126.5t-125 -309.5z" />
<glyph unicode="p" horiz-adv-x="1320" d="M157 -379v1372q0 31 31 31h42q31 0 31 -31v-205q64 120 179 189.5t261 69.5q108 0 205.5 -41.5t169 -112.5t114 -170.5t42.5 -210.5t-42.5 -210.5t-114 -170.5t-169 -112.5t-205.5 -41.5q-146 0 -261 69.5t-179 189.5v-615q0 -31 -31 -31h-42q-31 0 -31 31zM261 512 q0 -183 125 -309.5t308 -126.5t308.5 126.5t125.5 309.5t-125.5 309.5t-308.5 126.5t-308 -126.5t-125 -309.5z" />
<glyph unicode="q" horiz-adv-x="1320" d="M89 512q0 148 71.5 271.5t193 193.5t265.5 70q146 0 261 -69.5t179 -189.5v205q0 31 31 31h43q30 0 30 -31v-1372q0 -31 -30 -31h-43q-31 0 -31 31v615q-64 -120 -179 -189.5t-261 -69.5q-144 0 -265.5 70t-193 193.5t-71.5 271.5zM193 512q0 -183 125 -309.5t308 -126.5 t308.5 126.5t125.5 309.5t-125.5 309.5t-308.5 126.5t-308 -126.5t-125 -309.5z" />
<glyph unicode="r" horiz-adv-x="651" d="M157 31v962q0 31 31 31h42q31 0 31 -31v-156q96 189 311 201h4q27 0 27 -30v-38q0 -31 -21 -31q-137 -7 -229 -100t-92 -270v-538q0 -31 -31 -31h-42q-31 0 -31 31z" />
<glyph unicode="s" horiz-adv-x="948" d="M100 251q-2 32 31 32h42q26 0 32 -29q10 -88 84 -133t185 -45q119 0 195.5 47.5t76.5 137.5q0 59 -34.5 99.5t-90 61.5t-122.5 37.5t-133.5 37t-122 49.5t-90 84t-34.5 133q0 124 99 204t256 80q147 0 243 -75t108 -199q2 -32 -30 -32h-43q-26 0 -32 29q-10 87 -79 132.5 t-167 45.5q-107 0 -179 -48t-72 -137q0 -59 34.5 -98.5t90 -60.5t122 -37.5t133.5 -36.5t122.5 -49.5t90 -85t34.5 -134.5q0 -125 -103.5 -204.5t-272.5 -79.5q-160 0 -261 74.5t-113 199.5z" />
<glyph unicode="t" horiz-adv-x="649" d="M48 955v38q0 31 30 31h195v297q0 31 31 31h42q31 0 31 -31v-297h193q31 0 31 -31v-38q0 -31 -31 -31h-193v-893q0 -31 -31 -31h-42q-31 0 -31 31v893h-195q-30 0 -30 31z" />
<glyph unicode="u" horiz-adv-x="1073" d="M130 347v646q0 31 31 31h42q31 0 31 -31v-646q0 -128 71 -199.5t187 -71.5q62 0 118 21.5t102 64.5t73 116t27 168v547q0 31 30 31h43q30 0 30 -31v-962q0 -31 -30 -31h-43q-30 0 -30 31v136q-106 -190 -337 -190q-148 0 -246.5 99.5t-98.5 270.5z" />
<glyph unicode="v" horiz-adv-x="976" d="M41 989q-3 7 -3 13t4 12q7 10 24 10h45q28 0 36 -24l342 -888l342 888q8 24 35 24h46q18 0 24 -10q3 -5 3 -11t-3 -14l-376 -965q-8 -24 -35 -24h-41h-31q-26 0 -36 24z" />
<glyph unicode="w" horiz-adv-x="1386" d="M40 989q-3 8 -3 14q-1 7 3 11q6 10 24 10h47q25 0 34 -25l303 -878l195 552l-112 316q-6 16 1 25.5t24 9.5h47q25 0 34 -25l302 -877l302 877q9 25 34 25h47q18 0 24 -10q3 -5 3 -11t-3 -14l-341 -964q-9 -25 -36 -25h-36h-25q-26 0 -35 25l-179 505l-181 -505 q-9 -25 -35 -25h-36h-25q-27 0 -36 25z" />
<glyph unicode="x" horiz-adv-x="925" d="M68 11q-2 4 -2 8q0 8 7 18l332 493l-308 457q-11 15 -5 26t25 11h44q24 0 37 -20l263 -390l262 390q13 20 37 20h45q19 0 24.5 -11t-5.5 -26l-307 -457l332 -493q7 -10 7 -18q0 -4 -2 -8q-6 -11 -25 -11h-44q-24 0 -37 20l-287 427l-287 -427q-13 -20 -37 -20h-44 q-19 0 -25 11z" />
<glyph unicode="y" horiz-adv-x="962" d="M42 1014q7 10 24 10h45q28 0 36 -23l356 -852l313 850q9 25 35 25h47q17 0 24 -10q4 -5 4 -12q0 -6 -3 -13l-504 -1374q-9 -25 -35 -25h-47q-17 0 -24 10t-1 26l139 379l-408 984q-4 8 -4 15q0 6 3 10z" />
<glyph unicode="z" horiz-adv-x="935" d="M96 31v15q0 21 12 39l588 839h-549q-31 0 -31 31v38q0 31 31 31h662q31 0 31 -31v-15q0 -20 -13 -39l-587 -839h589q31 0 31 -31v-38q0 -31 -31 -31h-703q-30 0 -30 31z" />
<glyph unicode="{" horiz-adv-x="720" d="M109 700v38q0 31 31 31q100 4 146 48.5t46 154.5v384q0 156 80 234t231 71q30 0 30 -31v-38q0 -31 -32 -31q-106 7 -155.5 -42t-49.5 -163v-384q0 -110 -41 -171.5t-122 -82.5q81 -21 122 -81.5t41 -170.5v-385q0 -114 49.5 -163t155.5 -42q32 0 32 -30v-39 q0 -30 -30 -30q-151 -7 -231 71t-80 234v384q0 110 -46 154.5t-146 48.5q-31 0 -31 31z" />
<glyph unicode="|" horiz-adv-x="458" d="M178 -379v1823q0 31 30 31h43q30 0 30 -31v-1823q0 -31 -30 -31h-43q-30 0 -30 31z" />
<glyph unicode="}" horiz-adv-x="720" d="M48 -155q0 31 32 31q106 -7 155.5 42t49.5 163v385q0 110 41 170.5t122 81.5q-81 21 -122 82.5t-41 171.5v384q0 114 -49.5 163t-155.5 42q-32 0 -32 31v38q0 31 30 31q151 7 230.5 -71t79.5 -234v-384q0 -110 46 -154.5t147 -48.5q31 0 31 -31v-38q0 -31 -31 -31 q-101 -4 -147 -48.5t-46 -154.5v-385q0 -156 -79.5 -233.5t-230.5 -70.5q-30 0 -30 30v38z" />
<glyph unicode="~" horiz-adv-x="1202" d="M139 664q24 63 64 107t98.5 67t142 4.5t181.5 -82.5q265 -174 342 50q11 31 40 17l39 -17q26 -12 17 -40q-19 -50 -46.5 -88.5t-70.5 -65.5t-95.5 -32.5t-123 16t-150.5 73.5q-264 175 -343 -50q-11 -30 -39 -17l-39 18q-26 12 -17 40z" />
<glyph unicode="&#xa2;" horiz-adv-x="1179" d="M89 717q0 227 153.5 381t383.5 154q59 0 109 -10l57 171q8 21 28 21h30q13 0 18.5 -8t1.5 -21l-60 -184q101 -35 176 -105.5t112 -165.5q7 -16 0 -25.5t-24 -9.5h-46q-26 0 -37 23q-64 135 -212 188l-272 -829q59 -16 119 -16q123 0 221 58.5t144 156.5q12 23 37 23h46 q17 0 24 -9.5t0 -25.5q-53 -137 -181 -219.5t-291 -82.5q-81 0 -150 19l-59 -180q-7 -21 -29 -21h-30q-13 0 -18.5 8t-1.5 21l65 198q-143 62 -228.5 193.5t-85.5 296.5zM193 717q0 -130 65.5 -235t176.5 -158l269 822q-38 6 -78 6q-184 0 -308.5 -125.5t-124.5 -309.5z" />
<glyph unicode="&#xa3;" horiz-adv-x="1208" d="M89 31v43q0 31 30 31h173v481h-132q-30 0 -30 31v36q0 30 30 30h132v361q0 98 34 178t92 130.5t132 77.5t155 27q79 0 152 -27t132 -77.5t94 -130.5t35 -178v-17q0 -30 -31 -30h-47q-31 0 -31 30v17q0 144 -88 226t-216 82q-132 0 -218 -81t-86 -227v-361h463 q30 0 30 -30v-36q0 -31 -30 -31h-463v-481h742q31 0 31 -31v-43q0 -31 -31 -31h-1024q-30 0 -30 31z" />
<glyph unicode="&#xa5;" horiz-adv-x="1167" d="M47 1423q6 11 25 11h54q24 0 37 -20l421 -640l421 640q13 20 37 20h53q19 0 25 -11t-5 -26l-455 -693h328q31 0 31 -31v-30q0 -31 -31 -31h-350v-157h350q31 0 31 -30v-30q0 -31 -31 -31h-350v-333q0 -31 -31 -31h-48q-31 0 -31 31v333h-346q-30 0 -30 31v30q0 30 30 30 h346v157h-346q-30 0 -30 31v30q0 31 30 31h325l-455 693q-11 15 -5 26z" />
<glyph unicode="&#xa8;" horiz-adv-x="600" d="M41 1215v96q0 12 7.5 19.5t19.5 7.5h69q12 0 19.5 -7.5t7.5 -19.5v-96q0 -12 -7.5 -19.5t-19.5 -7.5h-69q-12 0 -19.5 7.5t-7.5 19.5zM437 1215v96q0 12 7.5 19.5t19.5 7.5h68q12 0 20 -7.5t8 -19.5v-96q0 -12 -8 -19.5t-20 -7.5h-68q-12 0 -19.5 7.5t-7.5 19.5z" />
<glyph unicode="&#xa9;" horiz-adv-x="1673" d="M96 717q0 151 58.5 288t157.5 236t236.5 157.5t288.5 58.5t288.5 -58.5t236.5 -157.5t157.5 -236t58.5 -288t-58.5 -288t-157.5 -236t-236.5 -157.5t-288.5 -58.5t-288.5 58.5t-236.5 157.5t-157.5 236t-58.5 288zM150 717q0 -141 54.5 -268.5t146.5 -220t219 -147 t267 -54.5t267 54.5t219 147t146.5 220t54.5 268.5t-54.5 268.5t-146.5 219.5t-219 146.5t-267 54.5t-267 -54.5t-219 -146.5t-146.5 -219.5t-54.5 -268.5zM446 717q0 165 114 279t283 114q126 0 224 -67t136 -177q5 -16 -2 -25t-24 -9h-45q-25 0 -35 25q-30 74 -99 115 t-155 41q-130 0 -212.5 -87t-82.5 -209t82.5 -209t212.5 -87q86 0 155 41t99 115q10 25 35 25h45q17 0 24 -8.5t2 -23.5q-37 -111 -135 -178.5t-225 -67.5q-169 0 -283 114t-114 279z" />
<glyph unicode="&#xab;" horiz-adv-x="960" d="M176 611q-14 21 0 43l194 314q12 20 37 20h59q18 0 23.5 -10.5t-3.5 -26.5l-195 -318l195 -318q9 -16 3.5 -26.5t-23.5 -10.5h-59q-25 0 -37 20zM464 611q-14 21 0 43l194 314q12 20 37 20h59q18 0 23.5 -10.5t-3.5 -26.5l-195 -318l195 -318q9 -16 3.5 -26.5 t-23.5 -10.5h-59q-25 0 -37 20z" />
<glyph unicode="&#xad;" d="M178 614v38q0 31 30 31h676q31 0 31 -31v-38q0 -31 -31 -31h-676q-30 0 -30 31z" />
<glyph unicode="&#xae;" horiz-adv-x="1673" d="M96 717q0 151 58.5 288t157.5 236t236.5 157.5t288.5 58.5t288.5 -58.5t236.5 -157.5t157.5 -236t58.5 -288t-58.5 -288t-157.5 -236t-236.5 -157.5t-288.5 -58.5t-288.5 58.5t-236.5 157.5t-157.5 236t-58.5 288zM150 717q0 -141 54.5 -268.5t146.5 -220t219 -147 t267 -54.5t267 54.5t219 147t146.5 220t54.5 268.5t-54.5 268.5t-146.5 219.5t-219 146.5t-267 54.5t-267 -54.5t-219 -146.5t-146.5 -219.5t-54.5 -268.5zM618 369v696q0 31 31 31h68h128q134 0 207 -69.5t73 -167.5q0 -171 -155 -220l205 -264q12 -16 7 -26.5t-25 -10.5 h-42q-23 0 -37 18l-209 266h-24h-128v-253q0 -31 -31 -31h-37q-31 0 -31 31zM717 716h134q87 0 131.5 38t44.5 105q0 64 -46 103t-130 39h-134v-285z" />
<glyph unicode="&#xb4;" horiz-adv-x="368" d="M58.5 1177.5q5.5 -10.5 21.5 -10.5h39q21 0 34 18l151 208q10 14 4.5 24t-22.5 10h-59q-22 0 -33 -19l-133 -206q-8 -14 -2.5 -24.5z" />
<glyph unicode="&#xb8;" horiz-adv-x="466" d="M34 -378q0 28 31 28q136 -11 206.5 11t70.5 71q0 81 -159 86q-28 1 -28 29v153h91v-115q82 -9 134.5 -49.5t52.5 -103.5q0 -84 -85.5 -131t-284.5 -36q-29 3 -29 30v27z" />
<glyph unicode="&#xbb;" horiz-adv-x="960" d="M183.5 288.5q-5.5 10.5 3.5 26.5l195 318l-195 318q-9 16 -3.5 26.5t23.5 10.5h59q25 0 37 -20l194 -314q14 -22 0 -43l-194 -313q-12 -20 -37 -20h-59q-18 0 -23.5 10.5zM471.5 288.5q-5.5 10.5 3.5 26.5l195 318l-195 318q-9 16 -3.5 26.5t23.5 10.5h59q25 0 37 -20 l194 -314q14 -21 0 -43l-194 -313q-12 -20 -37 -20h-59q-18 0 -23.5 10.5z" />
<glyph unicode="&#xc7;" horiz-adv-x="1574" d="M96 717q0 203 94.5 372t266.5 268.5t385 99.5q220 0 398.5 -117.5t253.5 -307.5q6 -16 -0.5 -25.5t-23.5 -9.5h-55q-25 0 -37 23q-66 149 -212 240.5t-324 91.5q-138 0 -258 -50t-202.5 -135.5t-129.5 -202t-47 -247.5t47 -247.5t129.5 -202t202.5 -135.5t258 -50 q179 0 324.5 91t211.5 241q12 23 37 23h55q17 0 24.5 -9t1.5 -23q-72 -181 -236.5 -297.5t-371.5 -129.5v-93q82 -9 134.5 -49.5t52.5 -103.5q0 -84 -85.5 -131t-284.5 -36q-29 3 -29 30v27q0 28 31 28q136 -11 206.5 11t70.5 71q0 81 -159 86q-28 1 -28 29v131 q-202 11 -363 112.5t-249.5 266t-88.5 360.5z" />
<glyph unicode="&#xcb;" horiz-adv-x="1064" d="M177 31v1372q0 31 31 31h79h648q31 0 31 -31v-41q0 -31 -31 -31h-648v-557h597q31 0 31 -31v-41q0 -30 -31 -30h-597v-570h658q31 0 31 -30v-41q0 -31 -31 -31h-720h-17q-31 0 -31 31zM309 1625v95q0 12 8 20t20 8h68q12 0 19.5 -8t7.5 -20v-95q0 -12 -7.5 -20t-19.5 -8 h-68q-12 0 -20 8t-8 20zM705 1625v95q0 12 7.5 20t19.5 8h69q12 0 19.5 -8t7.5 -20v-95q0 -12 -7.5 -20t-19.5 -8h-69q-12 0 -19.5 8t-7.5 20z" />
<glyph unicode="&#xe7;" horiz-adv-x="1179" d="M89 512q0 227 153.5 381t383.5 154q162 0 290 -82.5t182 -219.5q7 -16 0 -25.5t-24 -9.5h-46q-26 0 -37 23q-47 98 -144.5 156.5t-220.5 58.5q-184 0 -308.5 -126t-124.5 -310t124.5 -310t308.5 -126q123 0 221 58.5t144 156.5q12 23 37 23h46q17 0 24 -9.5t0 -25.5 q-49 -126 -163.5 -207t-262.5 -93v-94q82 -9 134.5 -49.5t52.5 -103.5q0 -84 -85.5 -131t-284.5 -36q-29 3 -29 30v27q0 28 31 28q136 -11 206.5 11t70.5 71q0 81 -159 86q-28 1 -28 29v131q-141 11 -253.5 83.5t-175.5 190.5t-63 260z" />
<glyph unicode="&#xeb;" horiz-adv-x="1171" d="M89 512q0 150 63.5 271.5t183 192.5t272.5 71q91 0 171 -29t138.5 -80t101 -119t64 -147.5t21.5 -163.5v-20q-1 -29 -32 -29h-73h-804q16 -174 131 -278.5t286 -104.5q114 0 201.5 48.5t128.5 128.5q14 22 36 22h51q18 0 26 -8.5t2 -21.5q-51 -121 -171 -194.5 t-276 -73.5q-231 0 -376 151t-145 384zM194 558h804q-15 181 -125 285.5t-265 104.5q-173 0 -286.5 -108.5t-127.5 -281.5zM346 1215v96q0 12 7.5 19.5t19.5 7.5h69q12 0 19.5 -7.5t7.5 -19.5v-96q0 -12 -7.5 -19.5t-19.5 -7.5h-69q-12 0 -19.5 7.5t-7.5 19.5zM742 1215v96 q0 12 7.5 19.5t19.5 7.5h69q12 0 19.5 -7.5t7.5 -19.5v-96q0 -12 -7.5 -19.5t-19.5 -7.5h-69q-12 0 -19.5 7.5t-7.5 19.5z" />
<glyph unicode="&#x2c6;" horiz-adv-x="645" d="M63 1177.5q-5 10.5 6 24.5l179 209q12 16 34 16h52h29q23 0 35 -16l178 -209q11 -14 6.5 -24.5t-21.5 -10.5h-52q-21 0 -34 17l-152 177l-152 -177q-13 -17 -34 -17h-52q-17 0 -22 10.5z" />
<glyph unicode="&#x2da;" horiz-adv-x="501" d="M41 1331q0 86 58.5 142t151.5 56q94 0 151.5 -56t57.5 -142t-57.5 -142t-151.5 -56q-93 0 -151.5 56t-58.5 142zM128 1331q0 -52 33.5 -84.5t89.5 -32.5q57 0 90 32.5t33 84.5t-33 85t-90 33q-56 0 -89.5 -33t-33.5 -85z" />
<glyph unicode="&#x2dc;" horiz-adv-x="638" d="M42 1224q5 99 47 147.5t104.5 41t130.5 -66.5q172 -152 182 27q1 29 29 29h35q29 0 27 -29q-5 -98 -47 -146.5t-104 -41t-130 65.5q-173 154 -183 -27q-1 -29 -29 -29h-35q-29 0 -27 29z" />
<glyph unicode="&#x2000;" horiz-adv-x="874" />
<glyph unicode="&#x2001;" horiz-adv-x="1748" />
<glyph unicode="&#x2002;" horiz-adv-x="874" />
<glyph unicode="&#x2003;" horiz-adv-x="1748" />
<glyph unicode="&#x2004;" horiz-adv-x="582" />
<glyph unicode="&#x2005;" horiz-adv-x="437" />
<glyph unicode="&#x2006;" horiz-adv-x="291" />
<glyph unicode="&#x2007;" horiz-adv-x="291" />
<glyph unicode="&#x2008;" horiz-adv-x="218" />
<glyph unicode="&#x2009;" horiz-adv-x="349" />
<glyph unicode="&#x200a;" horiz-adv-x="97" />
<glyph unicode="&#x2010;" d="M178 614v38q0 31 30 31h676q31 0 31 -31v-38q0 -31 -31 -31h-676q-30 0 -30 31z" />
<glyph unicode="&#x2011;" d="M178 614v38q0 31 30 31h676q31 0 31 -31v-38q0 -31 -31 -31h-676q-30 0 -30 31z" />
<glyph unicode="&#x2012;" d="M178 614v38q0 31 30 31h676q31 0 31 -31v-38q0 -31 -31 -31h-676q-30 0 -30 31z" />
<glyph unicode="&#x2013;" horiz-adv-x="1378" d="M178 614v38q0 31 30 31h963q31 0 31 -31v-38q0 -31 -31 -31h-963q-30 0 -30 31z" />
<glyph unicode="&#x2014;" horiz-adv-x="1583" d="M178 614v38q0 31 30 31h1168q30 0 30 -31v-38q0 -31 -30 -31h-1168q-30 0 -30 31z" />
<glyph unicode="&#x2018;" horiz-adv-x="450" d="M150 1053v160q0 184 126 225q24 6 24 -20v-21q0 -17 -15 -28q-59 -33 -60 -156h31q31 0 31 -31v-129q0 -31 -31 -31h-75q-31 0 -31 31z" />
<glyph unicode="&#x2019;" horiz-adv-x="450" d="M150 1038v21q0 16 16 27q58 32 59 156h-30q-31 0 -31 31v130q0 31 31 31h75q30 0 30 -31v-161q0 -183 -125 -224q-11 -3 -18 3t-7 17z" />
<glyph unicode="&#x201a;" horiz-adv-x="450" d="M150 -211q0 16 16 27q58 32 59 157h-30q-31 0 -31 30v130q0 31 31 31h75q30 0 30 -31v-160q0 -184 -125 -225q-11 -3 -18 3t-7 17v21z" />
<glyph unicode="&#x201c;" horiz-adv-x="710" d="M150 1053v160q0 184 126 225q24 6 24 -20v-21q0 -17 -15 -28q-59 -33 -60 -156h31q31 0 31 -31v-129q0 -31 -31 -31h-75q-31 0 -31 31zM410 1053v160q0 184 125 225q11 3 18 -3t7 -17v-21q0 -17 -16 -28q-58 -32 -59 -156h30q31 0 31 -31v-129q0 -31 -31 -31h-75 q-30 0 -30 31z" />
<glyph unicode="&#x201d;" horiz-adv-x="710" d="M150 1038v21q0 16 16 27q58 32 59 156h-30q-31 0 -31 31v130q0 31 31 31h75q30 0 30 -31v-161q0 -183 -125 -224q-11 -3 -18 3t-7 17zM410 1038v21q0 17 15 27q59 33 60 156h-31q-31 0 -31 31v130q0 31 31 31h75q31 0 31 -31v-161q0 -183 -126 -224q-24 -6 -24 20z" />
<glyph unicode="&#x201e;" horiz-adv-x="710" d="M150 -211q0 16 16 27q58 32 59 157h-30q-31 0 -31 30v130q0 31 31 31h75q30 0 30 -31v-160q0 -184 -125 -225q-11 -3 -18 3t-7 17v21zM410 -211q0 17 15 28q59 33 60 156h-31q-31 0 -31 30v130q0 31 31 31h75q31 0 31 -31v-160q0 -184 -126 -225q-24 -6 -24 20v21z" />
<glyph unicode="&#x2022;" horiz-adv-x="573" d="M109 719q0 73 52.5 124t127.5 51q73 0 124 -51t51 -124q0 -75 -51 -127.5t-124 -52.5q-75 0 -127.5 52.5t-52.5 127.5z" />
<glyph unicode="&#x2026;" horiz-adv-x="1214" d="M150 31v102q0 31 31 31h75q31 0 31 -31v-102q0 -31 -31 -31h-75q-31 0 -31 31zM539 31v102q0 31 31 31h75q31 0 31 -31v-102q0 -31 -31 -31h-75q-31 0 -31 31zM928 31v102q0 31 31 31h75q31 0 31 -31v-102q0 -31 -31 -31h-75q-31 0 -31 31z" />
<glyph unicode="&#x202f;" horiz-adv-x="349" />
<glyph unicode="&#x2039;" horiz-adv-x="673" d="M176 611q-14 21 0 43l194 314q12 20 37 20h59q18 0 23.5 -10.5t-3.5 -26.5l-195 -318l195 -318q9 -16 3.5 -26.5t-23.5 -10.5h-59q-25 0 -37 20z" />
<glyph unicode="&#x203a;" horiz-adv-x="673" d="M183.5 288.5q-5.5 10.5 3.5 26.5l195 318l-195 318q-9 16 -3.5 26.5t23.5 10.5h59q25 0 37 -20l194 -314q14 -22 0 -43l-194 -313q-12 -20 -37 -20h-59q-18 0 -23.5 10.5z" />
<glyph unicode="&#x205f;" horiz-adv-x="437" />
<glyph unicode="&#x20ac;" horiz-adv-x="1271" d="M20 580v30q0 30 31 30h128q-1 25 -1 77q0 59 2 87h-129q-30 0 -30 31v30q0 31 30 31h138q35 262 171 411.5t353 149.5q191 0 316.5 -115.5t164.5 -318.5q4 -16 -4 -25t-24 -9h-48q-29 0 -33 28q-33 161 -130 248t-242 87q-168 0 -275 -118.5t-139 -337.5h517q30 0 30 -31 v-30q0 -31 -30 -31h-527q-2 -28 -2 -87q0 -27 2 -77h527q31 0 31 -30v-30q0 -31 -31 -31h-519q30 -223 138 -345t278 -122q147 0 245 90t129 255q4 29 35 29h47q15 0 23 -9t6 -25q-39 -208 -166 -326.5t-319 -118.5q-219 0 -355 153t-170 419h-137q-31 0 -31 31z" />
<glyph unicode="&#x2122;" horiz-adv-x="978" d="M102 1387v30q0 17 17 17h172h103q17 0 17 -17v-30q0 -17 -17 -17h-103v-329q0 -17 -17 -17h-34q-17 0 -17 17v329h-104q-17 0 -17 17zM466 1041v376q0 17 17 17h34h20q16 0 21 -12l114 -236l115 236q5 12 21 12h34h18q17 0 17 -17v-376q0 -17 -17 -17h-34q-17 0 -17 17 v281l-97 -197q-5 -12 -21 -12h-38q-16 0 -21 12l-98 197v-281q0 -17 -17 -17h-34q-17 0 -17 17z" />
<glyph unicode="&#x25fc;" horiz-adv-x="1024" d="M0 0v1024h1024v-1024h-1024z" />
</font>
</defs>
</svg>
